<svg id="Layer_1" data-name="Layer 1" xmlns="http://www.w3.org/2000/svg" viewBox="0 0 600 190"><title>presentation</title><rect x="10.5" y="10.5" width="169" height="169" fill="#f2f2f2"/><path d="M179,11V179H11V11H179m1-1H10V180H180V10Z"/><rect x="240.5" y="10.5" width="349" height="169" fill="#f2f2f2"/><path d="M589,11V179H241V11H589m1-1H240V180H590V10Z"/><rect x="260.5" y="50.5" width="149" height="109" fill="#e6e6e6"/><path d="M409,51V159H261V51H409m1-1H260V160H410V50Z"/><rect x="420.5" y="50.5" width="149" height="109" fill="#e6e6e6"/><path d="M569,51V159H421V51H569m1-1H420V160H570V50Z"/><rect x="445.5" y="80.5" width="99" height="69" fill="#ccc"/><path d="M544,81v68H446V81h98m1-1H445v70H545V80Z"/><rect x="465.5" y="110.68" width="59" height="29" fill="#b3b3b3"/><path d="M524,111.18v28H466v-28h58m1-1H465v30h60v-30Z"/><text transform="translate(476.75 127.25)" font-size="12" font-family="FiraMono-Medium, Fira Mono">p5.js</text><text transform="translate(462.35 98.07)" font-size="12" font-family="FiraMono-Medium, Fira Mono">reveal.js</text><text transform="translate(469.55 68.07)" font-size="12" font-family="FiraMono-Medium, Fira Mono">browser</text><text transform="translate(277.4 68.07)" font-size="12" font-family="FiraMono-Medium, Fira Mono">p5.serialcontrol</text><text transform="translate(386.2 33.75)" font-size="12" font-family="FiraMono-Medium, Fira Mono">COMPUTER</text><text transform="translate(70.05 33.75)" font-size="12" font-family="FiraMono-Medium, Fira Mono">ARDUINO</text><text transform="translate(199.45 123.75)" font-size="12" font-family="FiraMono-Medium, Fira Mono">USB</text><line x1="180" y1="127.25" x2="231.39" y2="127.25" fill="none" stroke="#000" stroke-miterlimit="10" stroke-width="2"/><polygon points="229.64 133.23 240 127.25 229.64 121.27 229.64 133.23"/><line x1="240" y1="127" x2="240.5" y2="127" fill="none" stroke="blue" stroke-miterlimit="10"/><line x1="242.6" y1="127" x2="254.14" y2="127" fill="none" stroke="blue" stroke-miterlimit="10" stroke-dasharray="1.05 2.1"/><line x1="255.19" y1="127" x2="255.69" y2="127" fill="none" stroke="blue" stroke-miterlimit="10"/><polygon points="254.82 129.99 260 127 254.82 124.01 254.82 129.99" fill="blue"/><line x1="410" y1="127.5" x2="410.5" y2="127.5" fill="none" stroke="blue" stroke-miterlimit="10"/><line x1="412.49" y1="127.5" x2="459.2" y2="127.5" fill="none" stroke="blue" stroke-miterlimit="10" stroke-dasharray="0.99 1.99"/><line x1="460.19" y1="127.5" x2="460.69" y2="127.5" fill="none" stroke="blue" stroke-miterlimit="10"/><polygon points="459.82 130.49 465 127.5 459.82 124.51 459.82 130.49" fill="blue"/></svg>