<svg id="Layer_1" data-name="Layer 1" xmlns="http://www.w3.org/2000/svg" viewBox="0 0 954 377"><title>presentation-files</title><rect x="35" y="324" width="200" height="23"/><rect x="296" y="324" width="623" height="23"/><polygon points="677.63 30.29 507.63 30.29 507.63 316 707.63 316 707.63 60 677.63 30.29" fill="#f2f2f2" stroke="#000" stroke-miterlimit="10"/><polygon points="678.63 59 678.63 30.71 706.92 59 678.63 59" fill="#ccc"/><path d="M679.12,31.91,705.71,58.5H679.12V31.91m-1-2.41v30h30l-30-30Z"/><text transform="translate(515.98 50.27)" font-size="12" font-family="FiraMono-Medium, Fira Mono">demo.html</text><text transform="translate(515.98 146.41)" font-size="12" fill="#29abe2" font-family="FiraMono-Medium, Fira Mono">&lt;script src=<tspan x="86.4" y="0" fill="#ed1c24">“p5.js”</tspan><tspan x="136.8" y="0">&gt;</tspan><tspan x="0" y="14.4">&lt;script src=</tspan><tspan x="86.4" y="14.4" fill="#ed1c24">“serial.js”</tspan><tspan x="165.6" y="14.4" letter-spacing="0em">&gt;</tspan><tspan x="0" y="57.6">&lt;script src=</tspan><tspan x="86.4" y="57.6" fill="#ed1c24">“sketch.js”</tspan><tspan x="165.6" y="57.6" letter-spacing="0em">&gt;</tspan></text><polygon points="889 30.29 719 30.29 719 316 919 316 919 60 889 30.29" fill="#f2f2f2" stroke="#000" stroke-miterlimit="10"/><polygon points="890 59 890 30.71 918.29 59 890 59" fill="#ccc"/><path d="M890.5,31.91,917.09,58.5H890.5V31.91m-1-2.41v30h30l-30-30Z"/><text transform="translate(727.36 50.27)" font-size="12" font-family="FiraMono-Medium, Fira Mono">sketch.js</text><text transform="translate(727.36 175.22)" font-size="12" fill="#29abe2" font-family="FiraMono-Medium, Fira Mono">serial.readBytes();</text><polygon points="205.5 30.29 35.5 30.29 35.5 316 235.5 316 235.5 60 205.5 30.29" fill="#f2f2f2" stroke="#000" stroke-miterlimit="10"/><polygon points="206.5 59 206.5 30.71 234.79 59 206.5 59" fill="#ccc"/><path d="M207,31.91,233.59,58.5H207V31.91m-1-2.41v30h30l-30-30Z"/><text transform="translate(43.86 50.27)" font-size="12" font-family="FiraMono-Medium, Fira Mono">demo.sketch</text><text transform="translate(43.86 175.22)" font-size="12" fill="#29abe2" font-family="FiraMono-Medium, Fira Mono">serial.write();</text><polygon points="466 30.29 296 30.29 296 316 496 316 496 60 466 30.29" fill="#f2f2f2" stroke="#000" stroke-miterlimit="10"/><text transform="translate(304.36 50.27)" font-size="12" font-family="FiraMono-Medium, Fira Mono">presentation.html</text><text transform="translate(304.36 146.41)" font-size="12" fill="#29abe2" font-family="FiraMono-Medium, Fira Mono">&lt;script src=<tspan x="86.4" y="0" fill="#ed1c24">“reveal.js”</tspan><tspan x="165.6" y="0" letter-spacing="0em">&gt;</tspan><tspan x="0" y="43.2">&lt;iframe src=</tspan><tspan x="86.4" y="43.2" fill="#ed1c24">“demo.html”</tspan><tspan x="165.6" y="43.2" letter-spacing="0em">&gt;</tspan></text><polygon points="467.5 59.5 467.5 31.21 495.79 59.5 467.5 59.5" fill="#ccc"/><path d="M468,32.41,494.59,59H468V32.41M467,30V60h30L467,30Z"/><text transform="translate(110.05 338.57)" font-size="12" fill="#fff" font-family="FiraMono-Medium, Fira Mono">ARDUINO</text><text transform="translate(579.2 338.57)" font-size="12" fill="#fff" font-family="FiraMono-Medium, Fira Mono">COMPUTER</text></svg>